<svg viewBox="20 20 60 60" xmlns="http://www.w3.org/2000/svg"><g id="SVGRepo_bgCarrier" stroke-width="0"></g><g id="SVGRepo_tracerCarrier" stroke-linecap="round" stroke-linejoin="round"></g><g id="SVGRepo_iconCarrier"><path d="M76.26,37.7H73.57V64.63h2.69A3.75,3.75,0,0,0,80,60.89V41.44A3.75,3.75,0,0,0,76.26,37.7Z"></path><path d="M20,41.44V60.89a3.75,3.75,0,0,0,3.74,3.74h2.69V37.7H23.74A3.75,3.75,0,0,0,20,41.44Z"></path><path d="M66.46,34.33H33.54a3.75,3.75,0,0,0-3.74,3.74V64.26A3.75,3.75,0,0,0,33.54,68H66.46a3.75,3.75,0,0,0,3.74-3.74V38.07A3.75,3.75,0,0,0,66.46,34.33ZM60.89,61.27H37.77a1.21,1.21,0,0,1-1-1.83l7-12.19a.75.75,0,0,1,1.35,0l4.23,7.26a.81.81,0,0,0,1.35.07l3.44-4.94a.8.8,0,0,1,1.35,0l6.28,10A1,1,0,0,1,60.89,61.27Zm-.6-14.36a3.18,3.18,0,1,1,3.18-3.18A3.18,3.18,0,0,1,60.29,46.9Z"></path></g></svg>